# xmcd CD database file
#
# Track frame offsets:
#	150
#	18453
#	34676
#	53029
#	69488
#
# Disc length: 1171 seconds
#
# Revision: 0
# Processed by: cddbd v1.5.1PL2 Copyright (c) Steve Scherf et al.
# Submitted via: CDex 1.51
#
DISCID=39049105
DTITLE=D.L - 盲目時代 〜BLIND AGE 2006〜
DYEAR=2006
DGENRE=Hip-Hop
TTITLE0=盲目時代 〜BLIND AGE 2006〜 feat. 響　言奏
TTITLE1=THE MASTERS feat. ZEEBRA, TWIGY
TTITLE2=盲目時代 〜BLIND AGE 2006〜 (inst.)
TTITLE3=THE MASTERS (inst.)
TTITLE4=盲目時代 〜BLIND AGE 2006〜 (ドラムペラ)
EXTD=YEAR: 2006
EXTT0=
EXTT1=
EXTT2=
EXTT3=
EXTT4=
PLAYORDER=
